/* XPM */
static char *_6bcfc420c8f48e3f1a554023e60306cBqODZoMja0ibZUk5[] = {
/* columns rows colors chars-per-pixel */
"64 64 134 2 ",
"   c #000000",
".  c #0D0606",
"X  c #0B0B0B",
"o  c #131313",
"O  c #1C1B1B",
"+  c #240505",
"@  c #2A0707",
"#  c #2D0808",
"$  c #330B0B",
"%  c #3B0E0E",
"&  c #371313",
"*  c #3D1010",
"=  c #3F1B1B",
"-  c #222121",
";  c #353333",
":  c #3D3C3C",
">  c #441212",
",  c #4A1616",
"<  c #4E1919",
"1  c #541C1C",
"2  c #581F1F",
"3  c #462929",
"4  c #572222",
"5  c #5C2222",
"6  c #512C2C",
"7  c #5C2D2D",
"8  c #4D3232",
"9  c #473838",
"0  c #4F3A3A",
"q  c #533431",
"w  c #5C3838",
"e  c #622626",
"r  c #662929",
"t  c #6B2D2D",
"y  c #6E3131",
"u  c #733434",
"i  c #773939",
"p  c #7B3C3C",
"a  c #577A06",
"s  c #5C740E",
"d  c #71672B",
"f  c #6C7321",
"g  c #6B7C23",
"h  c #6F7429",
"j  c #797031",
"k  c #444444",
"l  c #494444",
"z  c #4C4C4C",
"x  c #554444",
"c  c #5E4646",
"v  c #544C4C",
"b  c #5B4E4E",
"n  c #5A5656",
"m  c gray35",
"M  c #604141",
"N  c #764343",
"B  c #7A4141",
"V  c #6F5C5C",
"C  c DimGray",
"Z  c #716363",
"A  c #824343",
"S  c #874848",
"D  c #8B4C4C",
"F  c #8E5050",
"G  c #8C5C5C",
"H  c #925454",
"J  c #955959",
"K  c #9A5D5D",
"L  c #846D41",
"P  c #887044",
"I  c #926C52",
"U  c #816161",
"Y  c #8D6262",
"T  c #816868",
"R  c #8C6C6C",
"E  c #946464",
"W  c #9D6262",
"Q  c #956B6B",
"!  c #9B6B6B",
"~  c #9E7C63",
"^  c #8B7676",
"/  c #A26767",
"(  c #A16666",
")  c #A06565",
"_  c #A26868",
"`  c #A36969",
"'  c #A46A6A",
"]  c #A56B6B",
"[  c #A66C6C",
"{  c #A66E6E",
"}  c #A76E6E",
"|  c #A66F6F",
" . c #A46A6A",
".. c #A17167",
"X. c #A87070",
"o. c #A97171",
"O. c #AA7272",
"+. c #AB7373",
"@. c #AD7575",
"#. c #AD7777",
"$. c #A27D7D",
"%. c #A67D7D",
"&. c #A77F7F",
"*. c #AE7878",
"=. c #AF7979",
"-. c #AF7979",
";. c #B27C7C",
":. c #B27D7D",
">. c #B07A7A",
",. c #998686",
"<. c #A58282",
"1. c #B48080",
"2. c #B58181",
"3. c #B18D8D",
"4. c #BA8888",
"5. c #BB8989",
"6. c #BB8A8A",
"7. c #BF9090",
"8. c #C09292",
"9. c #C29494",
"0. c #C49797",
"q. c #C49898",
"w. c #C69A9A",
"e. c #CBA2A2",
"r. c #CCA4A4",
"t. c #C1ACAC",
"y. c #C4B0B0",
"u. c #CDB7B7",
"i. c #D4B0B0",
"p. c #D5B1B1",
"a. c #D7B4B4",
"s. c #D6B5B5",
"d. c #D7B6B6",
"f. c #D6B4B4",
/* pixels */
"                                                                                                                                ",
"                                                                                                                                ",
"                                                            v                                                                   ",
"                                                            @.                                                                  ",
"                                                          2.D J                                                                 ",
"                                                        ^ u p u 4.                                                              ",
"                                                      F     C i H                                                               ",
"                                                  K . J     o u A   X p `                                                       ",
"                                                  X D u H > u 1 u y W p y                                                       ",
"                                                  9 O ` F e , S 9.J W B 5 D                                                     ",
"                                              ;.  : W K e   u 2 u % i r J 7                                                     ",
"                                            (   .   1 , u 1 r 5 t 1 u t &                                                       ",
"                                        X   J u J   , 2 q.H r 2 r   < 1 1       @.                                              ",
"                                        u D   p.! W r , ( t A u e D u t p .   J q.                                              ",
"                                      F p   F A t 5 > S A } e p 5 D r , B J   - }   @.                                          ",
"                                      y.<.X.< 7.;.p.y W 1 5 K 5 % 5 J S W } k 3.o X u o.                                        ",
"                                      e.r 5 % > y % , u t H u 6 r 2 o.i A e *.p   X..                                           ",
"                                      . u K % 2 D e 2 2 2 u 2 u z u r u 2 U q u W u F                                           ",
"                                        J D A 2 t , e 8 < 5 p u r % , :.p > 5 D B >.                                            ",
"                                        F w J o , 5 $ t < ( u r H t p K u , 1 e u e                                             ",
"                                          z S 8 o t , % > 2 u 5 o.e u z u e r *.r r                                             ",
"                                        ` S 5 d.> i 1 , 1 H n y R W H H D 1 5 2 A u .                                           ",
"                                      C H *.i u H , 2 2 5 $.K u G 5 t p J i 2.p e ,   v                                         ",
"                                      D p 5 B H r 2 > > ,   > > & ,.1 , r 2 i X Q u o                                           ",
"                                      i D i o.  e i t >   D >   2 , * r u B 5 2 B K                                             ",
"                                  V E D y e A 1 > y W 1 5 t u y m y B 1 p D 2 o p :                                             ",
"                                    A   5 H p u.2 2 p t e 1 , t N 2 1 t E u J k A K J                                           ",
"                                ] D r S u u i F B > r y 2 , , <   1 1   t A 2 i.p 4                                             ",
"                                J D e u t > e %.A 5 u t 2 r p > . % 1 a.o.r 8.K e u H                                           ",
"                                  t A u 5 2 5 5 e , W o r r , > * $ 9 S D 5 A r F u ;                                           ",
"                                S i   5 t r t A > 1 r < , 2 < e = @ y K 2.r e u } H X (     q.                                  ",
"                                x `   2 %.5 < , > t B v , > p S i 1 A H e r B e M A W F   } F                                   ",
"                                  F t c l 1 e B < 2 > i < e u e % y F J , > 2 2 u u u 5.    ;                                   ",
"                                      o % , % r , $ % r e 1 r 5 t i * < 2 , A D u e > 4.J r                                     ",
"                                      X 3 e , , N # % u > r $ > < t $ F % $ < $ 2 K , B   B T                                   ",
"                                    D i t . z > $ > % , $ D r > W , * < 1 $ r > % r   t.8 O J }                                 ",
"                                      z   t r 1 r 1 , D e t > > 5 t $ 4 # $ $ W % % 5 1 2 , i 2                                 ",
"                                    ( i d.2 > > % 5 % % > 5 % % % $ % $ % > W A > p t % , 5 0.r e                               ",
"                                    v u 7 1 2 > , G % > 1 % $ > # % 2 % * 2 u t , > % e , , 2 2 H                               ",
"                                    l i 5 < e , > > 2 * > % > $ $ $ # % % u t 5 0 % r 1 1 > 5   o.                              ",
"                                    A 5 z 2 # >   , % % > 1 % % 2 > 1 # # < * y $ * , % , y 8 v                                 ",
"                                X   A t 5 D   1 > , t % A e % > 2 % k . + < * < ,     5   e                                     ",
"                                  p.n D b p < % 2 , A y H 2 * % @ %   o f.> > > 2 1                                             ",
"                                    t   5 5   D e : - t   r e % Z 2     y t > 2 r 5                                             ",
"                                    >.X B % 2 2             % , 2 ;           5 e                                               ",
"                                    u     u r.                e                                                                 ",
"                                                              r                                                                 ",
"                                                              e                                                                 ",
"                                                              e                                                                 ",
"                                                              r                                                                 ",
"                                                              H                                                                 ",
"                                                              (                                                                 ",
"                                                              y                                                                 ",
"                                                              B .                                                               ",
"                                                               .                                                                ",
"                                                              ,                                                                 ",
"                                                              ;.                                                                ",
"                                                              ..q                                                               ",
"                                                              ..I                                                               ",
"                                                              L P                                                               ",
"                                                              d j                                                               ",
"                                                              h f                                                               ",
"                                                              g s                                                               ",
"                                                              s a                                                               "
};
