/* XPM */
static char *_205b93e25e94f30d71bb813f67bfb1deKsAwewnXb7gNO5E[] = {
/* columns rows colors chars-per-pixel */
"64 64 243 2 ",
"   c #070806",
".  c #160D0A",
"X  c #0D1308",
"o  c #141C0B",
"O  c #18140B",
"+  c #151D13",
"@  c #1C1C1D",
"#  c #161615",
"$  c #0B0C13",
"%  c #25150E",
"&  c #29160F",
"*  c #29180F",
"=  c #2A1711",
"-  c #2D1A13",
";  c #261713",
":  c #331D14",
">  c #391E15",
",  c #331E19",
"<  c #391D17",
"1  c #1B2609",
"2  c #1B2514",
"3  c #1F2B15",
"4  c #232919",
"5  c #362016",
"6  c #3C2117",
"7  c #362119",
"8  c #3C241A",
"9  c #3E281E",
"0  c #293717",
"q  c #20290D",
"w  c #141D21",
"e  c #242524",
"r  c #2A2B2B",
"t  c #282828",
"y  c #312E2D",
"u  c #3F2723",
"i  c #32372A",
"p  c #2E3335",
"a  c #343433",
"s  c #3C3B3A",
"d  c #393937",
"f  c #2E312C",
"g  c #1E2021",
"h  c #42261B",
"j  c #45291D",
"k  c #492B1E",
"l  c #412317",
"z  c #452B22",
"x  c #4B2D23",
"c  c #472A24",
"v  c #512F20",
"b  c #4E3125",
"n  c #4E3129",
"m  c #523225",
"M  c #5A3626",
"N  c #533429",
"B  c #5A362A",
"V  c #57392C",
"C  c #5B3A2C",
"Z  c #423D3B",
"A  c #623D2C",
"S  c #603727",
"D  c #324908",
"F  c #2E4216",
"G  c #364817",
"H  c #3C5515",
"J  c #375208",
"K  c #3A4928",
"L  c #3F4A32",
"P  c #435A18",
"I  c #454E1F",
"U  c #436602",
"Y  c #4A6618",
"T  c #557718",
"R  c #517310",
"E  c #495A28",
"W  c #43413D",
"Q  c #474C3A",
"!  c #4B5B35",
"~  c #4F5330",
"^  c #64412E",
"/  c #69442F",
"(  c #654231",
")  c #6B4633",
"_  c #724A32",
"`  c #4E6527",
"'  c #546C27",
"]  c #5B7726",
"[  c #536533",
"{  c #586B39",
"}  c #5D7535",
"|  c #4F6130",
" . c #63753A",
".. c #627A2E",
"X. c #607F17",
"o. c #333C41",
"O. c #3A4246",
"+. c #454442",
"@. c #4C4C4B",
"#. c #484745",
"$. c #514D4C",
"%. c #52514D",
"&. c #565949",
"*. c #4A4D51",
"=. c #545453",
"-. c #5B5653",
";. c #5D5A56",
":. c #555959",
">. c #5C5C5C",
",. c #545658",
"<. c #4D524B",
"1. c #625E5C",
"2. c #625A56",
"3. c #5A6446",
"4. c #5C6259",
"5. c #67774A",
"6. c #64615D",
"7. c #67645B",
"8. c #6C7859",
"9. c #6D6F4E",
"0. c #5B5E62",
"q. c #5D6265",
"w. c #636463",
"e. c #6B6563",
"r. c #6D6A66",
"t. c #6C6C6C",
"y. c #65696A",
"u. c #726D6B",
"i. c #756B67",
"p. c #6D716D",
"a. c #76726E",
"s. c #7A766C",
"d. c #6B6D71",
"f. c #6D7274",
"g. c #6F767C",
"h. c #747474",
"j. c #7B7573",
"k. c #7C7976",
"l. c #767679",
"z. c #74797C",
"x. c #7B7C7C",
"c. c #787878",
"v. c #726F71",
"b. c #605F60",
"n. c #827D7C",
"m. c #8A7E7C",
"M. c #837874",
"N. c #81766D",
"B. c #6E8735",
"V. c #788855",
"C. c #718849",
"Z. c #7A8966",
"A. c #7E837E",
"S. c #7B8476",
"D. c #83827E",
"F. c #8B817E",
"G. c #848777",
"H. c #8D9276",
"J. c #97A673",
"K. c #7B7E82",
"L. c #767E83",
"P. c #827E82",
"I. c #7E8283",
"U. c #7D858A",
"Y. c #7E8E99",
"T. c #838383",
"R. c #8B8483",
"E. c #8C8986",
"W. c #82858A",
"Q. c #84898A",
"!. c #8B8B8B",
"~. c #888886",
"^. c #918683",
"/. c #938B85",
"(. c #938C8B",
"). c #9B8E8C",
"_. c #9B8D84",
"`. c #95918E",
"'. c #9C928E",
"]. c #9B9686",
"[. c #8A8D91",
"{. c #848B93",
"}. c #8C9194",
"|. c #8B949B",
" X c #949393",
".X c #9C9492",
"XX c #949A9C",
"oX c #9B9B9C",
"OX c #989797",
"+X c #8C9190",
"@X c #A3938D",
"#X c #A49B95",
"$X c #A39D9A",
"%X c #A79995",
"&X c #AB9893",
"*X c #9CA29B",
"=X c #A4A29D",
"-X c #ABA39D",
";X c #B3A59A",
":X c #989DA3",
">X c #8C97A2",
",X c #A29FA3",
"<X c #9CA3AA",
"1X c #9AA2A6",
"2X c #A4A3A4",
"3X c #AAA4A2",
"4X c #ABA9A5",
"5X c #ACABAB",
"6X c #A5A7A9",
"7X c #B2ADAA",
"8X c #B4A9A4",
"9X c #B4B1AD",
"0X c #BCB4AA",
"qX c #A6ACB2",
"wX c #B3AEB2",
"eX c #ABB1B5",
"rX c #B4B3B3",
"tX c #BCBCBC",
"yX c #B9B8B7",
"uX c #AFB0AF",
"iX c #C7B5AC",
"pX c #C4BCB6",
"aX c #CAB3B0",
"sX c #D4B9AD",
"dX c #C4C2BC",
"fX c #C8C5BA",
"gX c #C0C4A1",
"hX c #B3BAC3",
"jX c #C0BDC0",
"kX c #C9C5C2",
"lX c #CCCAC4",
"zX c #C8C8C8",
"xX c #D9D3CB",
"cX c #CCD3DA",
"vX c #D7D7D6",
"bX c #CECCCC",
"nX c #E1DBD5",
"mX c #EBE2DC",
"MX c #D7DDE5",
"NX c #D9E4EF",
"BX c #F9F9F9",
"VX c #E6EBF0",
"CX c #BFCEDD",
/* pixels */
"l > > % = : < h l = % : < z z j z < h < < , , , , < z x x x b b m m m x m N m m m m m z h h < < z < z h l = % & v v j ; : 6 > l ",
"> : > & & : l l l = O 8 n B B B B B S S S B m x u c z j h 9 8 6 5 5 , , , , 8 < < 8 8 h h z h < h < < < > & . % v v h - > > > l ",
"& : l & = < l l h = . , b N N M M B B B B B B M N c z x x M B n b b b z x z h 8 h > , : : - = ; - & = - % .   & v v k < j 6 l > ",
"> : > & : < l l l = . , u b b n M A A A A A B B N N x x x x n n z b m x x x n x k c c z h h 8 z h h h h : % . % v v j l j l h < ",
": > > & & > l l h = O 7 z x b b n n m m n N n n n N n n n x x m b c c c c c c c x x c < 9 h 8 h < h h h l - . % k v k 9 l l l > ",
"> l > & > > l l j = O 9 b V V N V V V V V V N N V N N n n c z n n b n b x x x z z x h z z h j 9 < h h h < - . & v v k l k l 6 > ",
"l l l : > > l l j & O 9 n V V n N V C C C C M N n n m m m m x B m b b b m x m x x x x z z h k k z k h k h - . & v k j j j 6 6 6 ",
"k l > & > > k k l & O u n V V V N V C A ^ ^ ^ C N z N ^ ) C C C B B m N m v x z x x m v x x k k c k k k h : . & v k k k j j 6 l ",
"k > : > l l l k j & % z V ( ^ ^ A / ) ) ) ) / ^ / ) _ _ _ / A A A S A C B M M m M b b v k k j l j h j j l & . & v v v j k k l l ",
"j > & > l l k h l & . - 5 6 8 5 > > < < 5 7 8 8 h 8 h < 5 6 6 8 < h 8 < : - - = * * * % % % * % % % % * % %   - v k j j j k l l ",
"l l = < h h k h j & X e y y i i q t i o 1 1 t e e . # w # @ @ @ @ 4 4 0 # # w 2 1 1 o 1 o X X X X # e g @ #   * v k j j k k j l ",
"l > = < k h j k j &   q d @.E 0 0 O f 1 1 # i >.d.*.t   w p +.%.r e *.0.d.~.[.S.P D q G 0 0 0 0 0 + p p d 4 o - b k j j k k h l ",
"j > & h h h k k j * X 1 0 G 0 + K { Y i + 2 3 qXhX1X>X>X|.g.l.oX,XyXyXkXbXzXzX4XV.Y R X.Y H.V.| K 0 ! L 3 1 o * m k k j k k h h ",
"j > & h h h h c j % X D H 0 + + ` ' T H + 2 3 C.z.x.Q.|.I.K.}.9XjXzXtXkXfXzXxX9X-XJ.J.B.B.nXlX*X7.i F 2 F F 1 - b z k j k v 8 9 ",
"8 < & h 8 h j k j O   0 Y q # G H ` R T G H 0 ] S.oX<XOXT.z.XX6XaXtX7XkXzXnXfX4X0XgXJ.H.J.xXmXeX1Xq.i 2 3 o X - m k j z k v l 9 ",
"k l - h 8 h z j j % o 3 V.B.K J.! T T T ] B.T T Z.+X1X!.P.d.:X:XrXkXrXbXyXyXyXfXfXiXfXgXiXfXxXhXqX&.K 2 2 o X - m b k z k k h 6 ",
"< h = h u h h c h % 1 D 5.C.*X<X5.T R R C.S.V.V.8.q.y.I.Q.h.<XU./.-XlXlX*X5XeXpXdXfXxXlXnXmXxXyXQ 4.L 0 0 1 o - m b j z x x h 8 ",
"< 8 = 8 h u c v j & 1 D 5.k.|.qX|.' B.U H.Y.+XY.|.A.f.Q.U.x.W.q.H.8XeX6X6XdXuXdXlXkXlXfXlXdXzXC.K p.f 2 0 F 1 = m k z k b k k x ",
"c h = 8 h h k c k & 1 P I h.8.J.*XV.B.B.f.U.XX>X1X1X:X<XI.h.y.r.E.3X5X4XzXeX-X9XlXlXlXxXfXpXfXB.K <.K 3 4 Q 2 : m v k b x k j j ",
"h z - z h h c k k % 1 F &.e.G R B.B.T p.Q.*X|.U.|.I.XXqXU.Q.z.D./.`.=XtXyXcXzX7XpXxXfXxXlXlX9X} F G ' K i 0.t - b k k b b j z j ",
"z h - c h u c v v % o o 3.| 3 3 Y T Z.U.+X|.p.q.L.I.*X|.}.XXx.E.=X(.oX*X X1X9XxXlX0XdXdXpX5X].B.K K B.Y ! :.p : m z k x x k k x ",
"v h < c h c c v m 1 o 1 F 3.2 + X Y C.XX1XU.f.z.Q.!.U.U.Q.XXU.~.-XoX+X X X*XdXdXfXfXpXyXyXuX=XH.! | 5.B.] L 2 5 M x x x b k k x ",
"m 8 < b c v v b m * 2 o + Y 3 o + 2 T +X<XqX1X1X:X|.~.z.U.~.W.~.`.4X`.OX4X7XfX0X0XfXfXfXzXdX6XU.5.3.! 8.C.8.f - B b v x x x z x ",
"m < < v c c c b m * 2 2 2 H Y F 4 2 B.S.g.qX|.U.U.Q.T.x.I.S.z.OXr.t.h.r.S.T.D.!.p.:.@.4.0.:.L w g.p.$     $ $ - V x x m v x m h ",
"m 8 8 x c x b x m = t q 3 P U T { d.d.g.K.K.l.L.K.x.x.h.~.A.>.=XA.=.+.s a L $.t.>.r.:.#.a d *.q.g.{.A.}.U.y.t : V b k m b k m j ",
"x 8 z m c c c v M - r q 3 ] T T T U.L.!.6X[.[.[.L.T.I.d.A.h.=.1X9X2XrXkX5X5XzXwX X*XE.D.*X2XuXhXXXQ.|.*Xk.%.g : V b b m b b m x ",
"m , z z c v c v M - p i F A.C.T T 1X|.6XqX X!.f.l.h.K.T.p.w.,.6XuXOXyX7X`.4XhX9X4X+XE.F.E.+XoX4XXX>XV.} [ Q # = M b v M b x x x ",
"m < c x c c n m C 5 e #.Y G.A.G.G.Q.L.!.W.OX:XP.I.T.~.3X`.p.q.eX6X*X4X0X7X0XpXyX5XQ.k.'.'.`. X4X~.~.{ ' I 7.X : ^ b b m n x x x ",
"x , c b c b b m ^ : t @.5.l.w.t.S.T.L.x.K.!.[.P.I.Q.T.OXE.w.y.eX2X!.-X0X7XiX=Xk.E.}.n.'.9X4X4X}.[.}.' 8.9.%.. = C m x m b m x n ",
"m , b m c b b N ^ 5 r :.x.h.d.t.u.K.z.h.K.~.[.K.W.Q.x.~.P.r.t.!.oX2X-X-X-XpX.X-XfXQ.t.$X-X6X4X!.T.7.} s.'.Q o = C N x m m c x x ",
"m , n n c b m B C 6 2 Z q.W.l.>.=.,.*.#.:.K.[.XX:X!.T.T.x.u.6.k.=Xx.@X&X'.7XdX-X'.h.i._.7.r.!.'.I.c.Q.G.].9.1 - C n x m n n x m ",
"m , x x b b m B ^ 6 e d W d d W $.W 4.%.Z +.+.@.#.+.@.#.W #.@.D.oX-.#.=.+.W *.L s w.m.H.F.i.j.E.G.A.oXE.j.4.1 - C N x m x m z x ",
"x 8 n b m m N C ^ 8 @.!.7XOX X$X(.:XhX,X6X3X(.#XOX!.).(.3XbXVXMXzXeXP.1.>.,.=.w.p.G.@X;X0X$XM.T.T.A.Q.A.x.e.4 : C N x b b n c b ",
"b 8 B n x z x C ^ h W (.iXfXxXpXwXvXBXvXpXaXaX.X(.(.wXwXpXwXaX8X$X(.].T.a.(.oXoXA.k.2X7XiXiX$X!.E.!.~.T.K.i.r < C m x m x b z M ",
"x h M x x z m C ^ 6 d /.iXiXaX0XzXbXMXkX8X-X-X$X.X(.&X[.P.). X(.&X/.).$XT.OX2XrXT.k.(.%X8X8X#Xn.OXoXQ.`.j.1.r : ^ n x n n n n n ",
"k h x x n n N ) _ > W R.$XiXiX7X3XyXkXaX-X.X(.M.).&X%XoX.X.X(.).@X(.'.$X3X4X5X9X`.r.R.8X8X8X'./.!.`.E.`.n.e.y < C n x n n n c m ",
"b j b b n n m / _ 6 #.F.-X8X%X$X%XwXpXkX8X.XP.(.aXiXP.M.P.(.(.(.%X).).$X5XrXyX5X$Xy.j.'.@XoX@X.X(.`.(..XR.r.a , V b b n n n c x ",
"j j z x n n N N _ 6 +.G.$X8X-X3XwXwXpXjX8XP.P.aX3XP.M.P.P.@X@X@X.X%XR.~.(.k.u.n..XT.u.^.H./.'._.(.'.(.'.P.y.d , V b b n n n n z ",
"7 z c N n V n j / 8 s x.,XwX7XOX(.wXjXhX-X@X.X.XM.v.j.P./.&X).;X3X Xk.E.E.m.R.(.u.x.j.n./.m.F.F.n.E.(.(.a.-.y , ^ n b n n n V c ",
"7 u n N n V n M ( h d j..X-X$XoX<XwXhXwX8X&XP.M.u.j.P.M.P.@X&Xm.u.6.e.F.E.(.oX X>.w.n.@X^.m.F.F.R.R.(.!.M.b.a < ^ c c n n n V c ",
", c B M m N B C A h d u.(.$X$X,X,XhXhXwX,X).M.u.M.M.M.P.m.M.^.@X,X!.n.j.M.h.n.T.w.k.j.oXE.n.(.!.P.T.(.(.L.w.a 5 V y x n c z V n ",
", m B B n N V A / 8 y y.(.$XOX X).wX5XwX,X(.(.(.P.v.v.l.j.j.P.l.r.v.j.P.R.n.c.1.4. XA.m.D.k.a.i.t.h.L.K.v.:.y 5 V x z x n n V n ",
", M M A N V C C ) < a 6. XOX.X^.P.$XyX6XM.P.M.M.N.i.j.h.l.t.1.r.r.j.l.j.k.k.P.w.4.!.A.n.E.u.j.!.E.y.>.t.b.=.t 5 N x z n b x N n ",
"8 B B A n V C A ) < s l..X.XR.u.j.P..XM.m.i.$.+.#.+.#.+.s +.Z @.$.+.$.i.F.j.v.k.=XxX`.0.T.P.x.b.d.0.y.d.e.e.e 5 N x x n b x N N ",
"< A S A m B A A ) < @ y s =.-.2.i.r.j.].-.2.u.6.i.>.$.d d s d s -.6.=.-.6.j.pXBXBXBXBXU.h.y.,.q.*.o.p t g w + - N x c b b z n n ",
"h A B A m B C C ) , y b.j.n.P.qX9XOXt._._.pXkX3X,X6X6X1X:X1X|.|.VXBXzX,XOX:XBXBXVXBXBXMX|.I.oXQ.U.U.g.q.q.q.p - n z x x x z N c ",
"< B B A n V V C A u Z N.@X&XaXsXsX5XW.).3XaX.XM.F.^..Xl.u.T.l.}.NXbX).j.i.u.zXcXMXBXeXXX{.oXtXI.A.I.U.U.q.=.e - b z x x b u N c ",
"c B N N n N N N A 7 c N.).&X8XsX-X`.K.3X(.P.P.^.@X].j./.'.k.u.n.hX$XM.i.M.P.qXcXVXBXBX2XXX!.x.y.f.~.uXQ.c.p.f 5 n x c x b z N u ",
"z B N m n N N V ^ 7 y 2.N.&X%X&Xm.^.,X!.c.2.j.,X@X'.(./.'.=XA.x.wX1X@X(. XT.vXVXBXBXBXmXzX<XjXxX1X9XoXt.`.H.+.< b x x b b z N z ",
"c M N n x V V V ^ 7 y e.m.m.@X8X).^.R.h.j.m.h.R.%X/.R.;X X/.T.x.1X4X=X(.~.R.kXMXBXBXmXzXeXqX5XkX!.D.A.q.D.j.Z : m x z x z z m 9 ",
"h B B x x V V V ( 7 a i.).).-X).^.^.^.b.u.u.^.(..X!./.'.`.!.(.T..X-X5X#XE.x.2XbXMXBXBXpXQ.U.f.h.f.A.f.!.f.>.r : m z z z x z n z ",
"j N V c n V V N ^ 8 f ;.M.).@XP.P.m.v.t.j.$.6.R./.R.OX$X!.~.k.h. X(././.m.T.qXcXyXvX4X`.uX<X{.{.Q.q.d.xXy.+.e : m b j z j u b 9 ",
"j N n z m N V ^ A < t b.P.).P.&X^.(.P.v..Xe.1.e.r.2.6.>.6.w.=.Z @.+.=.=.Z s @.+.p #.q.@.=.=.o.O.p O.qXNXq.O.r - m x h z z 9 x , ",
"9 m x h n N n V A c t 1.P.P.P.&X.X).v.t.jXzXhXqXoXT.n.P. X!.K.{.I.I.1X[.x.z.[.:XL.0.~.T.w.%.*.0.Y.hXNXCXq.<.f - b c h z x 9 x 7 ",
"8 x x 9 c n n n A c t $.N.P.).).).P.y.-.!.:X>XP.[.2X:XOX.Xh.c.h.w.2.u.1.6.j.n.(.}.d.5XcX|.c.f.{.{.I.eXU.p *.w - b j 9 8 z u z - ",
"8 z c 9 n b n N A c y -.N.P.P..X@XP.K.$.K.K.K.M.c.^.x.j.r.1.e.w.w.>.e.r.>.e.u.P.|.g.NXNXeXeXU.Q.U.Q.f.f   +   5 k h 8 8 9 7 z ; ",
"9 u z 7 u x u n A c y -.a.F./.)..XP.n.*.e.l.K.P.M.m.m.a.-.v.h.u.e.w.j.u.a.N.e.6.t.}.hXx.z. Xz.g.d.f.,.s =.e $ : k 8 8 8 8 u 9 ; ",
"- 9 j 7 u z b n C u 4 %.2.j.x.m.^.(.t.*.K.K.K.[..Xm.1.-.l.z.1.2.>.e.r.n.m.i.7.e.u.{.oX#.r t s d r L :.Y.Y.d.a : k 8 7 7 7 7 7 ; ",
"7 9 8 7 i k n n V 7 4 #.3.i.a.a.x.b.+.:.v.v.L.l.R.P.1.2.1.1.>.:.$.w.u.a.j.M.u.2.1.K.Q.h.T.!.w.6.q.d.{.{.f.*.r - k 7 5 ; , 7 8 ; ",
"h 9 5 7 9 h z b V 9 1 F [ #.W $.=.L +.a.d.t.v.t.d.y.,.6.>.>.=.-.$.-.7.i.e.M.2.=.-.r.z.f.x.m.c.y.q.L.Y.A.p.<.4 & k 7 5 # = 8 8 O ",
"h 9 = 5 9 9 u x m 6 1 J I f f t r y 1.k.x.t.,.y.y.0.0.2.&.%.&.{ -.{ 5.2.-.2.%.%.>.y.h.w.k.k.j.t.q.y.h.p.:.K 4 - z 7 : $ ; , , O ",
"6 5 - - 7 8 z z b > q H V.S.A.T.L.I.t.r.>.h.x.q.*.=.0.;.3.-.3.' $.] ..2.[ &.#.;.r.t.I.r.h.j.u.4.0.,.q.S.[ F 2 = h , = # = , - % ",
"- - - , : 7 9 z k 5 1 D P ]  .5.V.5.{ E { { | [ E [ [ | P P Y R E R Y Y Y Y ` ` E [ } | E [ } 5.{ [ | [ Y D 1 - 9 5 - ; - , , . ",
"- - ; - 4 5 9 9 k 5 1 D U U U U U U U U U U U U U U U U U U U U U U U U U U U U U U U U U U U U U U U U J J 1 * 6 5 ; ; ; - - . "
};
