/* XPM */
static char *_402c1ea6f63423ee430a62d7ce87f58kzhco6nxiEzjIqpR[] = {
/* columns rows colors chars-per-pixel */
"64 64 218 2 ",
"   c #0C0604",
".  c #0E0806",
"X  c #070403",
"o  c #120A07",
"O  c #160C09",
"+  c #190E0A",
"@  c #100706",
"#  c #0F1008",
"$  c #16110C",
"%  c #1B110D",
"&  c #181A07",
"*  c #1D1311",
"=  c #24140E",
"-  c #29160F",
";  c #29180F",
":  c #211A0C",
">  c #231611",
",  c #2A1711",
"<  c #271813",
"1  c #2C1A13",
"2  c #2C1C19",
"3  c #331D15",
"4  c #391E15",
"5  c #341E19",
"6  c #3A1F19",
"7  c #321711",
"8  c #1A2303",
"9  c #1E2D01",
"0  c #343A0D",
"q  c #2C2611",
"w  c #2F2818",
"e  c #352116",
"r  c #3B2116",
"t  c #35211A",
"y  c #3C231B",
"u  c #3E281E",
"i  c #3B2D15",
"p  c #2E3111",
"a  c #3A3516",
"s  c #2C3709",
"d  c #3D2621",
"f  c #3C2920",
"g  c #372320",
"h  c #412317",
"j  c #42261C",
"k  c #44291D",
"l  c #4A2B1E",
"z  c #48261C",
"x  c #512E1D",
"c  c #41311D",
"v  c #48391C",
"b  c #422621",
"n  c #452A22",
"m  c #4A2D22",
"M  c #4A2E25",
"N  c #4D2E25",
"B  c #4B2D23",
"V  c #462B28",
"C  c #4B2E28",
"Z  c #512F20",
"A  c #512F21",
"S  c #4E3026",
"D  c #4D3125",
"F  c #4E3129",
"G  c #4E3229",
"H  c #4B3A2A",
"J  c #523122",
"K  c #523125",
"L  c #523325",
"P  c #5B3526",
"I  c #593525",
"U  c #513229",
"Y  c #543429",
"T  c #5A362A",
"R  c #56392B",
"E  c #5B3A2C",
"W  c #5A3927",
"Q  c #5B3C31",
"!  c #553B32",
"~  c #603727",
"^  c #623D2B",
"/  c #2F4802",
"(  c #314406",
")  c #3C440D",
"_  c #384908",
"`  c #3E5309",
"'  c #3C5704",
"]  c #3A4114",
"[  c #41470E",
"{  c #424A0E",
"}  c #4A480E",
"|  c #435909",
" . c #454B11",
".. c #424114",
"X. c #436602",
"o. c #4B6808",
"O. c #5D4131",
"+. c #64412E",
"@. c #69432E",
"#. c #6F4C2B",
"$. c #654231",
"%. c #6B4633",
"&. c #6D4935",
"*. c #674B3A",
"=. c #724B32",
"-. c #69513C",
";. c #795E46",
":. c #775F4D",
">. c #735843",
",. c #7C6448",
"<. c #7A6452",
"1. c #7C6A57",
"2. c #896E54",
"3. c #846F59",
"4. c #826952",
"5. c #8E775A",
"6. c #957A5D",
"7. c #947246",
"8. c #897663",
"9. c #997F63",
"0. c #957D64",
"q. c #9B835F",
"w. c #B68F44",
"e. c #A1845F",
"r. c #B7985D",
"t. c #9B8362",
"y. c #9A856A",
"u. c #A68F6E",
"i. c #AA8E65",
"p. c #AD956A",
"a. c #AC9265",
"s. c #B99E6A",
"d. c #B49C6F",
"f. c #A08E75",
"g. c #A69374",
"h. c #A99472",
"j. c #A39378",
"k. c #AA977B",
"l. c #AE9D79",
"z. c #B49D73",
"x. c #B89E75",
"c. c #BEA36C",
"v. c #BDA264",
"b. c #BAA474",
"n. c #BEAA7C",
"m. c #B9A57B",
"M. c #C3A45B",
"N. c #C5AB6A",
"B. c #C9AF73",
"V. c #C3AE7C",
"C. c #C3A976",
"Z. c #D3AE70",
"A. c #C9B177",
"S. c #CCB579",
"D. c #CFB879",
"F. c #D2B77D",
"G. c #B09E81",
"H. c #ADA082",
"J. c #B3A484",
"K. c #BCAB86",
"L. c #B4A78C",
"P. c #BDAD8B",
"I. c #BAA785",
"U. c #BFB08C",
"Y. c #BEB192",
"T. c #BEB39A",
"R. c #C2AE8D",
"E. c #C6B283",
"W. c #CAB686",
"Q. c #C4B38B",
"!. c #CDB98C",
"~. c #CBB786",
"^. c #D6BB83",
"/. c #D2BD8C",
"(. c #D9BD8A",
"). c #DCBC84",
"_. c #C5B494",
"`. c #CCBB91",
"'. c #C6BB9E",
"]. c #C7B899",
"[. c #C8BCA2",
"{. c #DAC18C",
"}. c #D6C28F",
"|. c #D5C395",
" X c #DAC595",
".X c #D4C39C",
"XX c #DAC69A",
"oX c #DBCB9C",
"OX c #E0CD9D",
"+X c #E2D19F",
"@X c #D4C6A4",
"#X c #DCCDA4",
"$X c #D2C5A9",
"%X c #DECEAA",
"&X c #D5C8A7",
"*X c #DED1A5",
"=X c #DACEB0",
"-X c #DDD2B7",
";X c #E0CEA3",
":X c #E0CEA8",
">X c #E2D2A4",
",X c #E4D4AA",
"<X c #E8D9AC",
"1X c #E3D6B3",
"2X c #E6DAB4",
"3X c #E9DDB4",
"4X c #EADEBA",
"5X c #E1D7BA",
"6X c #EAE1BD",
"7X c #EBE0B2",
"8X c #EADFC1",
"9X c #EBE3C3",
"0X c #EEE7CA",
"qX c #EEE9CB",
"wX c #F2EBCC",
"eX c #EEEAD2",
"rX c #F1EDD4",
"tX c #F4F1D8",
/* pixels */
"h 4 7 - 2 1 y z h , % e y u m k b 6 j 4 6 5 5 5 g 6 n N l D D m L L N N A G S L J L J n j n 5 6 b 6 z z r 3 + - A J k > 3 r r h ",
"4 3 4 7 , 7 6 h h ; % y D W E E T T ^ ^ ~ P A C d b n j j y i r t e 5 5 6 5 t t t y h j b j j y j 6 6 3 4 - o - J x k 1 t r 4 h ",
"7 7 r ; 1 4 h h h , % t S R L Y I T T T P I T I U C n B M R I U N G N m m n k h y 6 6 1 3 1 , , 1 , - , - + @ - A x z t z r h 4 ",
"7 7 h ; 1 4 h h h , O 2 u M S L I ^ ^ ^ ^ ^ T T U U N N N N G C m S L N N N L N N m b z j j y j j j j h 3 = o - A J z y z h h 4 ",
"7 h 4 - 7 r h i j , * t n M M M C G L L C U U G U U G G G N B A N N B n b n n n B b b j j j y j h y j j y 3 O - l x l u z h h 3 ",
"4 z 7 - 7 r h h k , % t S R R R Y R T T I R R Y R R G G C m m N C C C N B B N N m B b b b b j j j j j k h ; O - x x l h k i r 4 ",
"h z 4 q r 4 h z k ; % y G R R Y Y R E E Q E W Y C G L U U L B R U A U N N N N B B N m m n m m k b z k z h 1 O - D l z k k h 4 h ",
"z h 3 7 4 r z z z ; % f G R R R Y E E $.$.E ^ E Y k I @.&.E E E T Y I U A N m m N N A A m n l l n z m z j 1 O - J l l l k z r h ",
"l r 3 3 y h z l h ; : k R $.$.^ ^ %.%.&.%.%.@.@.@.@.=.=.#.@.^ ^ ^ E ^ ^ W W Y J I J J D l l k j j z l l h 1 o , J l m k l l r k ",
"z 3 , e h h h k z ; + ; e i y t r t 3 3 4 t r y j r h y 3 r h i h u t 3 3 3 1 ; ; ; ; ; = = - = = = = ; = O o , >.y.O.n k l h r ",
"z r , r z k l k h ; X . o O o o o o o o o o O . % % O O O + $ o O o @ o O O O O o . % % $ % % + % + o O o . X 1 k.'.[.k.-.l k h ",
"h r , r h z z z k ; . % 1 1 = - , = = = , , 3 = e 1 3 1 3 3 1 1 7 - + - 1 1 3 3 ; + u r 3 3 e e r e 1 7 = =   H @X].P.P.`.,.j j ",
"z 3 1 h j j z m l - O ; r h 3 3 4 4 3 7 3 r k - l j h y u j r r r 3 > 4 y r h j k = J l k k l k l l h h ; e o <.0XwX<XQ.b.*.h h ",
"h r , h j j k z z - + ; r l 4 r h 4 3 4 r k x 3 D l m k l D u r j 4 > h j h j z k ; +.J x D J D x x z z r e ; m.9X4X4X,Xa.D u h ",
"y y , j y j k l j = O 3 r x 4 6 h h 6 4 h l J 2 J l l k l x u u 6 y , z j j b m k = +.D m l J x J A h j h r R .X:X>X,X X,.B h u ",
"j y 1 j y j k k j = O 3 y x 4 4 6 6 #.F.$X'..X_._.R.].'.U.t.4.O.z j 1 j j y n z h = ^ l D D L D I x z B k e <.|.V.B./.E.J m h y ",
"y h , j b j n z j : O 3 r l 6 5 4 4 2.,XrXrXtXrXeXrXqXqX6X6XoX,.6 6 1 6 b y z m h : ^ S m L R N J J z J z 3 f 1.p.c.N.5.m m j j ",
"6 j , y 6 b m m l = % 3 r l 6 4 7 6 6.:XR.J.L.[.'.H.J.l.U.J.V.,.6 j , j j z m z z - E S m A L A P x h P j 3 % 1 W *.;.E B k k m ",
"b b 1 j j z n m l = + 3 h j y 5 5 6 0.5Xg.f.f.j.l.l.K.t.p.y.n.-.b b 1 j j b n m m = E L N A R A P P j A h 3 o 3 S m z B S z k k ",
"j j 3 j j b z m l = % 3 j j h 5 6 6 8.%XT._.[.L.@XQ.`.l.p.m.~.*.z b 1 b j j n m m - E A m N I U P P 6 P z 3 O 3 D m m D D k m k ",
"n j 7 z 6 b N A D = % 1 j h j 5 6 j 3.5XeX9X9X9X2X4X<X,X>X{.^.$.b j 3 b y b m A B = W m 6 A R A A P g P m 6 + 3 L m m m D k z D ",
"L y 6 n b b N N J ; % 1 j 6 m 6 j b 9.4XeXeX0X6X4X4XoX,X;X).^.O.A y t b u n m N J ; E m b A R U P A 6 P x h O 3 R m m m D l k m ",
"J y y m n B N N J ; % 3 j 6 m 4 6 y 9.8XeXrX0X4X8X9X6X2X,X(.{.Y J y r B m M D D J ; W S N m L U P A 6 A z h + 7 R m A N B m B m ",
"J t t m m m m N Y , % 1 m y B 6 j b 0.9X9X9X3X4X0X9X4X1X1X(.^.l J 6 y m m k m D W ; E L m N R U A A d b l h + 3 I m B L A m L k ",
"L t j N B B B m L 1 % 1 l j D y 6 m h.9X6X7X*X<X2X*X+X*X%XZ.B.l L y y N m M m m J ; @.L N S R U A U b 6 z z O 3 E M m S B M S m ",
"A t n A b B M m L 1 % 1 n b L y b M u.4X9X6X7X<X1X+X+X%X%X}.N.l A t b A b N N m Y 1 +.R M M E U C A b j j h O 3 E S L L J N A m ",
"A 5 n N B B N N W 1 % 1 b k U 6 y Y u.1X9X6X7X<X>X+XoX%X,XoXv.B L 5 n N n M N B I 1 $.U M M R R U N b b b k O 3 W S J L S M M N ",
"U 5 m N n M N A W 2 * 1 j N I y y L i.3X2X#XoXoX|./.{.~.,X#Xd.D U 6 m B n N N L W 3 %.R D M R Q U U N j m j + 1 E S L L S N n N ",
"N 6 m N B B C R ^ 3 % 2 u D U j y Y p.7XoXb.W.n.A.W.r.v.XXV.q.D B 6 m N n C N U ^ 3 @.E A M Q Q U U B b n u O 3 E L D L L S N S ",
"N 5 N S B C A U E r % > 5 M L y y R p.3X#Xn.E.N.N.A.b.c.V.K.a.m N 5 N L N A C I E 6 %.E U U Q Q I T C b M t > 1 E L B J S M B B ",
"L 3 G D B N C I ^ r % > 2 S L b y ! z.oX`.!.!.n.A.F.D.B.b.b.7.D L 5 G C C C U U ^ y &.Q T U ! ! ! R C b M t = 1 R Y B Y G M m J ",
"L 6 M M C C U E +.r % 2 n B D k u O.b.oX|. X|.}.F.D.M.w.w.t.R D J t N N N A U T ^ h %.^ U C Y R T T C b M t = 1 E Y B S G L m B ",
"D r U C B S Y E ^ y * 2 M N B m g H 3.j.f.y.8.1.3.1.<.:.:.*.m D m t G C S S Y E ^ r &.$.I G T Q Y Y C b C y > 3 E Y D D N G M D ",
"D y E S A m B E ^ y $ < n L n L 6 y t G D m V e E L m L C G n Y D j W G N m B E ^ r =.%.I R Q Q G ! G b C u > 3 E L m G M S n Y ",
"l u Y m N m L E @.r * 1 n S b A g 6 M G G M M 2 Q Y D S C G C U x j W m B n L E @.t %.@.R Y Q Q G Q C V N u : 3 E Y m S D G C L ",
"l j M S S C U %.=.e % 1 f L m L 6 g M G M M G 3 E S m G V G C L c j M D L U U %.=.3 C.-X=X$X$X$XL.9.C b M u > 2 E U D S C G C L ",
"v k B S G G U @.=.y % 1 y L B U d b V C U N S e E S D G G G V M B k B N C G U @.=.r .X_.T.[.Y.U.R.m.U b C b > e E D D G G G V M ",
"k n m N G Y Y Y #.y % 2 d L m I b n M R U G Y e E G S G C Y G m k j n C U Y L Y =.y ].L.J.I.Q.k.h.z.U V C d = e R D D G D G G m ",
"y b B U G R G k @.r O 2 y Y m L b B B C N N W 3 R D D D G U Y B y n B U G R G k @.y _.eX9X6X1X*X XC.U V C b > e Q G M D G G Y M ",
"5 d U U Y R D Y @.u % 2 u Y m I b A N n M N R w O.V M D C C Y B 5 d U R G R S Y %.h R.eX0X9X9X2X;XC.U V C d > 3 R M M G M G Y M ",
"5 C T I U Y U E @.r % 2 u S m Y n A B b K U I 6 R n M H M M R C 5 N I Y U Y Y E @.h R.9X3X3X2X<XoXs.G V V u > w O.V m D M n R G ",
"5 L T T U R I ^ @.y $ , y n n L n N b n U I R 5 R V M M D M R L 5 U I T Y Y T E $.y I.9X3X<X>X:X:Xc.U V n b > e R n V M G M R G ",
"5 P I ^ U R E Q %.t $ < j m f S m b b n L W E t W M m D D M G U 6 P I ^ Y R E Q %.r x.3X#X X X~.:Xb.C V M n > e R M m D N B Y U ",
"6 T T ^ U T E $.%.e $ 1 u j n L m M n M R Y E 3 H M n D D M Y U 6 ~ Q ^ U I E $.%.e x.*Xn.C.B.c.~.d.C V n n = e H m M D N m R U ",
"4 ^ ~ ^ A T Q $.%.4 O , u 5 S d n M n V L Y E 3 L m M D G n U S 3 ^ T ^ U T Q ^ %.e x.XX`.D.F.N.N.9.N m M n > 3 G M m N N n Y G ",
"h ^ T ^ U T E E %.3 O = > 5 N 5 d M f M R L R 3 D V m M M n Y m j ~ P ^ U T E Q %.3 6.z.f.0.0.2.2.&.C A M n > 3 D n m m M n Y n ",
"h T T ^ C R E R $.t o % > y 6 y b M n M W L O.; S m M M M n U m y T T ^ A ! T T $.t &.&.E T $.Q ^ ^ N I S f > 1 D m M M M b U M ",
"b T L R C Y Y Y @.t o > % , 4 t n M n D R J E e D M m M G d G j j T I T C Y Y Y @.4 %.=.T T ^ Q T T U ^ m f < e D D B M G n G u ",
"b T I U V R Y Y $.t . % = e y y m D M D R L R e D D m m M n Y n k E R L V R R R @.r %.@.^ E ^ E ^ ^ U ^ B j < 3 L D m M D n Y j ",
"m T R G C R R R +.y   % % t B j M S M M R L E 2 L D n m m M G f m I U C G R Y R ^ t @.%.E Q $.Q Q ^ P ^ B d > 2 L m n m m V G f ",
"n I U N D W E R $.y . = > d m j m D D M W Y D e D m j m m b S n j E R M M R ! E $.y %.%.E E $.Q T E A ^ m f = 3 L m k m M b L n ",
"d I R n G R R R O.y o < < f n j m D m D W W D e L D j n k n N u u R R n S R R R O.y %.E E T R R E ^ A ~ n u * 3 L m n k z f D u ",
"j W C n Y R R R +.j o O * d d j m m m D L W J 1 L D j n m u M t j I U n L W R R +.u +.E W R ! E ^ ^ m B n d * 1 L m j k m d M t ",
"u L C j S L G W %.k @ o + 5 t b M m n M L R D ; D k j b m b M t y L M n G L G W %.j +.+.W R Q E E T m m n d % 1 D M j b m u m t ",
"t N N u C D G Y O.j @ O % , 6 n n n j D D L D 1 D k i u j d n 1 t B M y M H D D +.k @.E L R Q ! T I m I d g * 3 D j u u j u n 2 ",
"y n m y M D D H O.k o o = 3 t j m n u D v L D e k k u y u t n < y n n u M D D H +.u +.+.R D R W T I n ~ d g % 3 k j y u j t n < ",
"y n j t f M M H O.k % + + 1 6 u b n y m D D m 3 l y h t y y u < h n k t M m M H O.u +.W D n G Y W W k @.d g + 3 D r y t y y d < ",
"1 n k t n m n M O.i & % = % , t j j y n D c j q x y t 2 t y y < 2 d k t n m M M O.u E W M f R D L D k +.f 5 $ 2 l y t 5 t y y < ",
"2 u y t f n H M W r & & p 1 , 5 h u t n l k k 1 m t t 2 2 t t < 5 u y t u n M M R y W L f f Y G D D j R d t $ 1 c t e < 3 t t < ",
"j j e t f f M D R e 8 s ) , > 5 t t 2 j l D u ; c t 2 > 1 t r > j j i t g u M H W w W D u f G D D c y D f w $ < l y 2 > 1 t t = ",
"k y 1 3 y y V m Y t 9 ' [ ; 2 e 6 2 + u k m i , k r 1 & q 6 i s j v } w t a n D H r L D d < V M l k t u a p # 1 k t 2 o < 5 5 % ",
"y e 1 5 t y n n D 4 8 / ) q q 1 3 1 < u u k t 1 k e 2 * p t a ` r o.{ t ] v a n D y D c 5 w M n k m t w a 0 8 2 j t < * , 3 5 % ",
"1 3 1 2 5 t u n D e 8 / _ ` [ ) ) ( ) [ [ [  .) { ) ( 0 ` ` X.o._ o.| ` o.|  . . .)  . .] )  .[  . .) ) ` / 8 1 u e 1 > 1 2 5 O ",
", 1 > 1 2 w y j n q 9 / ' X.X.X.X.X.X.X.X.X.X.X.X.X.X.X.X.X.X.X.X.X.X.X.X.X.X.X.X.X.X.X.X.X.X.X.X.X.X.X.' / 9 ; y e < < 1 1 1 + "
};
