/* XPM */
static char *cef3bed5908d4eafc1e09b7638f73fc4rlYEt4YXWnCy0mUR[] = {
/* columns rows colors chars-per-pixel */
"64 64 187 2 ",
"   c #070403",
".  c #0C0604",
"X  c #0E0806",
"o  c #100706",
"O  c #120A07",
"+  c #160C09",
"@  c #190E0A",
"#  c #0F1008",
"$  c #171806",
"%  c #1B1907",
"&  c #16110C",
"*  c #1B110D",
"=  c #171C08",
"-  c #1D1311",
";  c #24140E",
":  c #29160F",
">  c #211A0C",
",  c #29180F",
"<  c #231611",
"1  c #2A1711",
"2  c #271813",
"3  c #2C1A13",
"4  c #2C1C19",
"5  c #321711",
"6  c #331D15",
"7  c #391F16",
"8  c #341E19",
"9  c #3A1F19",
"0  c #1A2303",
"q  c #1E2D01",
"w  c #2C3709",
"e  c #31330D",
"r  c #333E0D",
"t  c #3A3F0D",
"y  c #2C2611",
"u  c #2F2818",
"i  c #352116",
"p  c #3B2116",
"a  c #3B2D15",
"s  c #35211A",
"d  c #3C231B",
"f  c #3E281E",
"g  c #2E3111",
"h  c #343211",
"j  c #3A3513",
"k  c #3B321C",
"l  c #3D3A19",
"z  c #372320",
"x  c #3D2621",
"c  c #3E2820",
"v  c #412317",
"b  c #42261C",
"n  c #48261C",
"m  c #45291D",
"M  c #4A2B1E",
"N  c #512E1E",
"B  c #41311D",
"V  c #423A18",
"C  c #4D381F",
"Z  c #51301F",
"A  c #422621",
"S  c #452A22",
"D  c #4A2C22",
"F  c #4B2C22",
"G  c #4A2C23",
"H  c #4A2D23",
"J  c #4B2F22",
"K  c #4B2E23",
"L  c #492E20",
"P  c #4D2E21",
"I  c #4F2E20",
"U  c #4D2E23",
"Y  c #492C24",
"T  c #4A2C24",
"R  c #4B2E25",
"E  c #4A2D26",
"W  c #4B2F27",
"Q  c #4C2D24",
"!  c #4D2D24",
"~  c #4D2E25",
"^  c #4E2F25",
"/  c #4E2E24",
"(  c #4C2F26",
")  c #4D2F27",
"_  c #4B2D23",
"`  c #462B28",
"'  c #4A2C28",
"]  c #4D2E28",
"[  c #4B2E28",
"{  c #502F20",
"}  c #512F20",
"|  c #512F21",
" . c #512F21",
".. c #4C3021",
"X. c #4F3222",
"o. c #4F3025",
"O. c #4F3025",
"+. c #4D3026",
"@. c #4E3027",
"#. c #4E3127",
"$. c #4D3125",
"%. c #4D3128",
"&. c #4E3128",
"*. c #4F322A",
"=. c #4E3129",
"-. c #513021",
";. c #523020",
":. c #533122",
">. c #533223",
",. c #513123",
"<. c #513025",
"1. c #533125",
"2. c #523224",
"3. c #533325",
"4. c #513127",
"5. c #523127",
"6. c #513227",
"7. c #573427",
"8. c #563627",
"9. c #523325",
"0. c #5B3424",
"q. c #5B3627",
"w. c #593527",
"e. c #593525",
"r. c #573826",
"t. c #5C3927",
"y. c #503129",
"u. c #513229",
"i. c #503229",
"p. c #523229",
"a. c #523329",
"s. c #543329",
"d. c #553429",
"f. c #573629",
"g. c #56362B",
"h. c #54342A",
"j. c #593729",
"k. c #5B3628",
"l. c #5D3729",
"z. c #58352C",
"x. c #5C362C",
"c. c #59372A",
"v. c #57392B",
"b. c #5A3829",
"n. c #5B392A",
"m. c #5B3A2C",
"M. c #5C3C31",
"N. c #603727",
"B. c #603727",
"V. c #60392A",
"C. c #633B2A",
"Z. c #603C2B",
"A. c #653D2C",
"S. c #653F2D",
"D. c #623D2C",
"F. c #613F32",
"G. c #2F4802",
"H. c #314406",
"J. c #314A02",
"K. c #37410B",
"L. c #3C440D",
"P. c #3D4C0B",
"I. c #3B5106",
"U. c #3D5D02",
"Y. c #3E5309",
"T. c #3A4114",
"R. c #41470E",
"E. c #424A0E",
"W. c #4A480E",
"Q. c #435E07",
"!. c #44560B",
"~. c #425809",
"^. c #424114",
"/. c #454B11",
"(. c #436602",
"). c #496507",
"_. c #4B6D06",
"`. c #4E600E",
"'. c #5E4030",
"]. c #64412E",
"[. c #69432E",
"{. c #654030",
"}. c #644231",
"|. c #6B4633",
" X c #6E4935",
".X c #724B33",
"XX c #754E39",
/* pixels */
"v 7 5 : 4 3 v v v 3 @ 6 d A L m b d b 9 9 9 8 8 8 d A D M ..X...9.9.+.+.p.p.+.:.:.:...m b A 9 9 b 9 b b v 5 * : N  .n < 3 p p v ",
"7 6 7 5 1 3 9 v v 3 - d +.b.b.b.g.l.l.C.q.e.1.! x ` m m m m d s i i 3 9 9 6 i d d d f b A b d b b d 9 7 6 : + : 0.N M 2 d p v 7 ",
"5 5 p , 3 7 v v v : @ s +.g.h.8.g.l.l.l.q.1.l.3.=.' L D R 3.b.p.+.=.+.D D A A d d p 9 6 6 3 1 2 3 3 1 3 : @ o : Q N n i n p v 7 ",
"5 5 v , 3 7 v v p 3 + 6 f R +.h.l.m.A.S.[.A.b.g.g.p.+.R +.D =.! R +.1.R ! ! +.1.D Q A A b b d b b b v v 6 ; O : N N m d n v v 7 ",
"5 v 7 : 5 p v v b , * s A +.+.+.+.+.1.1.=.p.h.*.=.p.*.=.+.+.Q +.R R R D A D A D D D A d b A d b 9 b b b v 3 + ; M Z M d b v v i ",
"7 n 5 : 5 p a n m 2 - s +.v.v.g.g.v.v.z.g.g.h.g.g.g.h.#.' L D +.] ] ! +.+.! R R D D A m A b A b 9 b b b d 3 + : :.M M a M p p p ",
"v n 7 y 7 7 v v m , & f =.v.g.g.h.v.m.m.m.v.8.8.=.+.h.h.h.1.D g.p.+.+.! ! +.! D Q Q Q D D n D m D D b n v 6 + : N M n m m p p p ",
"n v 6 5 7 v n m v , * c =.v.v.g.g.v.m.F.{.].D.b.h.m 3.}. Xm.m.m.b.g.3.g.1.+...D +...Q ! D D M M A n M M b 3 + : Z Q N M m n p v ",
"M p 3 6 p b b n M , ; m 8.}.].].F.{.|.|.|.|.[.[.[.[..XXX.X[.D.t.D.D.D.m.t.q.3.r.r.Z >.Z Q M m b v n M M p 5 + , Z M M M M m p n ",
"n p , p v p n n v , @ , s d d i 7 d 6 p i d d p b p a p i p p a d d p 7 6 3 3 2 : ; , ; ; ; : ; ; ; ; , ; + O 5 :.M n m M M v p ",
"v p , p n n M n n ,   . + + O O O O O O O O + O @ + + + @ + @ @ + O X O @ @ @ O + X * * & @ * @ * @ + + O X   , :.M m n M M m a ",
"v p , p b b b M m , X % , 3 ; 2 1 ; ; ; ; 1 i * i 7 6 , 6 6 3 2 , : * ; 3 3 3 6 , * f p 6 6 i 6 p i , 6 ; ; O , ..M m n n M b b ",
"n 6 3 v b b M M M : + , p n , 7 7 6 6 5 6 i n , M b b d n b p p v 6 ; 7 d p v b b ; r.M n m M m M M v v 3 6 + 5 ..M m m M M b b ",
"b p ; n b b b D n ; * , p M 6 p v 7 7 7 p n Z 3 ..D M m ..M d b n 7 1 b b b b M n , m.C M D 0.M Z Z n v i p @ 6 :.D D m ..M p f ",
"9 d 1 b v b m M b ; @ 3 p N 7 p v d p 7 v M Z 6 :.Q M m M Q b d 7 v 1 b d b A D b ; '.Z D ..r.Q {  .n n v p @ 6 1...M m M M b d ",
"M d 3 b d d M m b ; @ 6 v M p 9 d 7 p 7 v M Z 3 9.Q M A m M b d m d 3 b b 9 D n m ; '.N ..+.3.{  .0.v M n 6 @ 3 9.R M S M M b b ",
"p d 2 b b d D D n ; * 6 p M 9 9 8 7 9 9 n M M 6 :.D A D Q M m f 9 n 1 d b b m M b ; ].+.Q 1.3.Q 0. .n | v 6 @ 6 :.D D m Q D b d ",
"9 v 2 b d A F n m ; & 3 v M 9 8 6 9 9 v b n Z 5 r...D M D L m D 9 d 1 d b b D M M , t.#.Q ..t.:.0. .b 0.b 6 @ 6 r.Q D D ..D M D ",
"A b 3 b A b D D M : * 6 b b p 6 8 9 9 d n p M 6 :.D D ....M m m A A 3 A A b A Q M ; b.1.Q ..3.3.0.0.x | b 6 + 5 M D M Q Q A m m ",
"b A 6 b d d D D M ; & 6 b b v 6 9 9 9 v b n Z , Q D D ....A D m b b 3 b b A D D M ; b.1.D { g.:.3.0.d 0.n 6 @ 5 :.D M ....m L m ",
"b f 6 A d n !  ...; * 3 b v b 8 d v b d b n N 3 #.D M D ! m M Q A A 6 b b A D | .., r.L d | g.Q | 7.9 x.F 9 % 6 9.D A D +.m M Q ",
"1.d 9 b A A ! ' .., * 3 b 9 D 9 d d n b n m M y v.L D D 1.D m D | d 9 D A A D ..>., m.L A | g.g.7.7.9 0.M n + 6 8.D ..D 1.D M M ",
"3.d d D D Y ! | r., * 6 b 9 F 9 d d b b n v M 6 b.+.:.Q ..D R D 1.d d D A R ..+.>., 8.*.R Q p.p.7.7.9 ! M v + 6 b.+...1.Q D D D ",
":.d d D Y D R ! 3.1 * 6 A d F d v A b b b M M 6 b.D Q 1...R 1.b :.9 d D R L D ..r., m.9.D R g.1. .| x n M v + 5 8.+.Q :...R 1.m ",
"1.d d Q D D +.D >., * 3 D b ..d d D n d F M F 3 t.Q D ..1.R +.D +.d f Q D D Q D >.1 ].9.+.+.v.g.| 5.A d m n + 3 b.+...1.+.! +.D ",
"! d m +.A R Q Q r.3 * 4 D b 1.d A A n d b b Q 6 t.+.1.3...! 1.D ! i m +.A Q ..Q r.3 ].v.R +.v.p.' | A b b v @ 6 m.+.9.3...! 1.D ",
"+.9 A ! D D +.Q r.3 * 1 A A s.9 s M b b M v D 6 m.+.:.3.+.D R ! 1.s A ! D R +...r.3 }.8.R R v.g.y.| A A D b @ 3 t...:.3.+.R R ! ",
"p.i D ! A R +.:.t.i - 2 b ! 7.d d m b M M d M 3 m.+.1.h.=.! L +.p.9 D D S R ! 3.t.i }.b.R R v.M.p.p.! A b m @ 6 '.+.+.9.+.R L R ",
"! 9 D ! Y R ! g.m.i * 4 f +.s.d f d d n m d M 3 m.9...1.1.=.+...] i D R Y ! ! g.D.6 [.m.=.' M.M.s.y.! A A b * 3 m.1.+.1.1.p.D ! ",
"+.4 ! p.R ] ! g.m.p * < s D 3.f d A 6 m m d M 3 m.h.+.9.=.+.D D +.6 ! p.Y ' ! s.D.p }.m.p.*.v.M.g.g.] A R s < 3 m.9.+.1.+.+.Q Q ",
"3.i =.! R ! =.g.D.p * < 4 +.1.m d x 9 b A A D 3 v.#...9.=.! R :.1.i =.! ' ! p.g.m.d  XF.g.p.M.v.v.z.] A ` i ; 3 v.*...3.=.R D >.",
">.i +.R ! ] p.b.].p * 4 S ..+.A b d d A D M D 3 '.9...#.+.=.D Q 1.i =.D +.! p.b.D.d |.m.s.! z.z.v.v.[ x +.s ; 3 m.v.Q +.=.=.D ..",
"..s h.! :.+.g.m.].d * 4 L +.D D d x 8 A R A ` y '.9...+.+.+.D +.+.i p.] +.+.g.n.Z.p |.].8.*.*.M.*.z.=.x ! d < 3 '.h...+.+.=.` :.",
"X.d l.=.Q D Q m.Z.d * 2 S 1.D +.9 s z +.! Y L s m.9.Q #.! +.` g.:.f b.=.Q D ..n.].p .X|.b.h.M.M.*.g.*.x ] f < 6 m.9.D 9.R =.` 3.",
"..f 3.R D L +.m.[.p - 4 S #.L +.8 z ` g.] ! R 3 '.+.D #.+.=.+.=...f 3...+.A 1.m.[.p  X{.8.g.M.'.*.v.*.` ] f 2 3 m.h...#.R *.+.1.",
"M m R +.] =.h.|..Xi * 2 c 9.! 3.9 z R p.=.R +.6 m.+.R =.+.=.+.9.M f D +.1.=.h. X|.s  X{.8.v.}.M.*.z.[ ` R f < 6 m.*.D *.R =.' h.",
"..m ..+.=.=.h.[..Xp @ 3 d p.D 3.x A ` =.p.! =.i m.#.+.#.+.=.` Q ..m Q ! =.+.p.{..Xv .XA.p.z.M.M.*.M.*.x *.x * i m.+.+.*.+.%.` +.",
"m m S +.*.*.h.3..Xa * 3 x 1.Q 3.A S ' p.p.+.h.i m.*.+.*.+.*.*.` M A L R =.g.h.3..Xp XXb.x v.'.M.*.z.*.` *.x < s m.+.+.=.=.*.=.L ",
"d S ` h.*.v.+.M [.d & 4 f g.D 1.A F R +.=.! v.i v.+...+.+.*.g.! i A ' h.*.v.*.M |.d .XS.p.v.M.M.g.M.g.` [ x 2 i v.=.R +.+.=.v.` ",
"8 x =.h.=.v.=.3.[.b * 4 f 3.D g.D { Q ` R ! v.y M.+.+.+.+.] g.R s x =.h.=.v.%.9.{.f .X|.m.z.}.M.g.M.*.` [ x 2 6 M.+.R +.+.=.h.R ",
"4 ] l.p.p.h.h.b.].p * 4 f ..A l.A | D A 1.9.m.i M.` R %.R R v.=.4 ] l.p.p.h.h.m.].f |.|.m.x.M.M.v.M.*.` ` x 2 y v.` ` W W W v.W ",
"8 1.l.l.p.h.8.A.[.d & 2 f L L 3.D ! A A g.3.8.i v.S S +.%.R v.+.z | l.b.p.g.8.A.[.d  X|.n.M.F.M.m.F.p.` R A < i '.` L W X.W 8.#.",
"9 0.3.S.p.g.m.'.|.p * 2 f A m +.b Y A R h.9.'.i v.L ` +.%.+.9.1.6 q.3.F.p.g.8.M.}.d |..XV.v.F.M.F.S.+.` ` A < i h.` L W +.+.v.+.",
"9 l.l.F.=.v.m.{.|.p & 2 d A L #.! Y ` A 8.v.m.6 *.L ..#.+.` h.#.9 N.l.{.=.g.'.{.|.p |. XF.z.F.F.V.F.+.A R A ; i X.L R %...` h.h.",
"7 C.l.S.1.z.M.]. X7 + 2 f s =.A L L S ` h.9.m.i v.L L ..+.` g.+.7 C.l.S.| g.A.{.|.i |. XA.v.|.F.F.m.] ` R A < i 9.` D +.+.` h.+.",
"b V.q.S.1.v.m.v.|.6 + * < 6 +.8 x ` S R r.9.8.i #.S ` D +.A h.A n V.q.S.s.v.M.v.|.i |. Xm.b.F.M.V.A.R 1.+.c < i #.L D D +.A h.L ",
"d l.V.V.+.v.v.v.{.d O * < d 8 d A R S ` v.9.'.2 #.L L +.+.A h.L d x.l.V.| v.v.v.[.d |..Xm.l.}.M.A.m.R l.+.f 2 2 #.L ` +.+.A p.L ",
"A s.3.g.=.g.h.g.F.d O * ; 2 6 d A R S +.8.9.m.i #.L ` +.%.A =.c f s.0.g.] g.h.*.].i |. Xn.m.F.M.m.n.p.C.+.f , i #.R R R +.A =.f ",
"m b.3.g.+.v.*.v.'.d X * ; i d d D +.` #.8.8.v.i #.+.L R +.A h.m L b.r.#.%.*.h.=.].p [.|.A.v.}.m.S.n.3.[.D A < 9 +.R ` ..+.S g.A ",
"D b.g.+.+.v.v.v.'.d X * ; 6 D A Q +.+...h.r.m.3 8.L S L +.S h.f L 8.v.%.W v.v.'.'.d [.|.m.v.}.M.m.A.1.C.:.z < y 9.D A L D S *.c ",
"A b.g.R L v.v.v.{.p X * 2 z L b R +.+.+.8.8.9.6 #.L A L D A +.S f b.v.R W v.'.h.}.d |.}.m.v.}.M.b.m.1.A.L c * 6 9.` M L D A +.L ",
"f b.8.A %.v.v.v.'.d & , 4 x A b D +.L ..8.m.#.i 9.L A L L A +.c f g.*.L W v.h.h.'.f |.A.b.m.v.m.m.A.! b.` d < 6 9...m L D x +.f ",
"m 8.+.L h.h.v.'.].b O + - z x b D ..L +.8.8.X.3 8.L m A L c +.i m g.1.L h.h.'.'.].m ].t.v.v.m.v.m.[.D R ` d - 6 9...m A M x R i ",
"f 9.` m +.*.X.v.}.m   + @ 6 d A ` L S +.9.r.X.1 +.L m A D c D s d 1.` c =.X.%.r.[.f ].'.r.v.'.v.n.t.D L ` z * , 9.A f L L f R s ",
"d ! +.d +.9.#.h.].m . + ; 1 i A S S S +.#.9.+.6 ..m d f m z A 3 d ..+.d W %.X.h.].f [.'.v.v.'.v.t.3.D e.m s - 6 ..m d f A f A 3 ",
"d A D f ` #.%.*.'.m O O ; 6 d A S S f L X.X...6 m m d d f d A 4 f A D f W X.W h.'.m [.t.*.=.v.v.q.9.D Z.x z - i A m d d m s A 4 ",
"d A A i ` R W X.'.m * + @ 3 6 b A m d L #.X.L y D f f i d c f 2 d A A d S L W =.'.f ].r.X.L h.X.r.8.M [.c z * 3 M f d d d z b 2 ",
"3 c M s k k W W '.a % @ ; * 2 d b f d S ....m 6 M i d 6 s s d 2 3 f A s S ` W W '.d '.8.` c *.h.9.X.m '.z s & i M d d 4 6 z d 2 ",
"s d d s c ` R W v.p = > w 4 1 6 d d d A ..B A 3 M i i 4 3 s d < 6 d f 6 c c W %.v.i t.#.c c v.%.#.X.m r.c s & 1 M i i 4 4 d d < ",
"f m s s d c R %.v.u 0 w t 2 2 6 d i 4 c L S f 1 M d 4 - 4 d p < A m a 9 c k L %.v.a v.%.f c =.W ....f X.z u & , M s y - 3 s 6 < ",
"m d 3 6 f f A +.#.d 0 I./.3 2 i 6 6 - d M B f , m s 2 = y i a e m ^.W.6 s B R R h.u >.L z 2 ` L L m s k k g # 3 b 9 4 O 2 8 9 - ",
"d i 3 6 s z S S #.p 0 H.t y y 6 6 3 2 f f m d 6 f i 4 - h u j Y.d `./.4 T.T.k L %.p X.L s u R A A S s s l K.= 2 m 8 4 - 2 6 6 @ ",
"3 6 3 4 6 s f S B i 0 G.I.Y.R.K.L.K.K.L.E.E.L.K.E.L.K.K.P.Y.Y._.P._.(.Y.).~./././.E././.T.L././.E./.T.L.P.H.0 2 d i 2 2 3 4 6 & ",
"3 2 2 3 3 u d f L i q J.U.(.(.(.(.(.(.(.(.(.(.(.(.(.(.(.(.(.(.(.(.(.(.(.(.(.(.(.(.(.(.(.(.(.(.(.(.(.(.(.U.J.q , d i 2 2 3 3 4 & "
};
