/* XPM */
static char *_65d0edca6044bf2d297c9089c7772b0KVYiIcO7EWjcsany[] = {
/* columns rows colors chars-per-pixel */
"64 64 237 2 ",
"   c #010100",
".  c #0B0A09",
"X  c #160C09",
"o  c #180D09",
"O  c #1C110D",
"+  c #050514",
"@  c #1B1B1D",
"#  c #151416",
"$  c #0E1013",
"%  c #25150E",
"&  c #29160F",
"*  c #29180F",
"=  c #2A1711",
"-  c #2D1A13",
";  c #261713",
":  c #331D14",
">  c #391E15",
",  c #331E19",
"<  c #391D17",
"1  c #1C2706",
"2  c #362016",
"3  c #3C2117",
"4  c #36211A",
"5  c #3C241A",
"6  c #3E281E",
"7  c #232618",
"8  c #1C1E22",
"9  c #001A20",
"0  c #242424",
"q  c #2A2B2B",
"w  c #272828",
"e  c #312E2D",
"r  c #3F2723",
"t  c #33312E",
"y  c #2A2E32",
"u  c #2E3233",
"i  c #2C333C",
"p  c #343433",
"a  c #3C3B3B",
"s  c #383837",
"d  c #31302D",
"f  c #1E2021",
"g  c #42261B",
"h  c #45291D",
"j  c #492B1E",
"k  c #412317",
"l  c #452B22",
"z  c #4B2D23",
"x  c #472A24",
"c  c #512F20",
"v  c #4E3125",
"b  c #4E3129",
"n  c #523225",
"m  c #5A3626",
"M  c #533429",
"N  c #5A362A",
"B  c #57392C",
"V  c #5B3A2C",
"C  c #433D3B",
"Z  c #623D2C",
"A  c #603727",
"S  c #364E0A",
"D  c #3E4535",
"F  c #455B19",
"G  c #436602",
"H  c #4C6A13",
"J  c #4B5D28",
"K  c #43413D",
"L  c #4C413D",
"P  c #58502F",
"I  c #64412E",
"U  c #69442F",
"Y  c #654231",
"T  c #6B4633",
"R  c #724A32",
"E  c #536432",
"W  c #5A6D3A",
"Q  c #546A2C",
"!  c #61713A",
"~  c #333C41",
"^  c #3C4346",
"/  c #444443",
"(  c #4A4542",
")  c #4C4C4B",
"_  c #474848",
"`  c #514D4C",
"'  c #52514D",
"]  c #555847",
"[  c #494D51",
"{  c #4C5154",
"}  c #545353",
"|  c #5B5653",
" . c #5D5A56",
".. c #56595A",
"X. c #5C5C5C",
"o. c #545659",
"O. c #4F514D",
"+. c #625D5C",
"@. c #625A56",
"#. c #5A6544",
"$. c #5A6158",
"%. c #64615D",
"&. c #68635B",
"*. c #6E7B4A",
"=. c #5A5D62",
"-. c #5D6264",
";. c #5B636B",
":. c #636463",
">. c #6B6563",
",. c #6D6A66",
"<. c #64676A",
"1. c #656A6D",
"2. c #6C6B6C",
"3. c #666966",
"4. c #726D6B",
"5. c #766B67",
"6. c #6E716C",
"7. c #76726E",
"8. c #7C726E",
"9. c #6B6E72",
"0. c #646D72",
"q. c #6D7274",
"w. c #6D777B",
"e. c #747474",
"r. c #7B7573",
"t. c #7C7976",
"y. c #757679",
"u. c #747A7C",
"i. c #7B7B7C",
"p. c #797779",
"a. c #726F71",
"s. c #605F60",
"d. c #827D7C",
"f. c #8A7E7C",
"g. c #837874",
"h. c #81756E",
"j. c #7D827D",
"k. c #6F8251",
"l. c #83817E",
"z. c #8B817E",
"x. c #95847E",
"c. c #7B7E82",
"v. c #767D83",
"b. c #827E82",
"n. c #7D8283",
"m. c #7D8489",
"M. c #7A858A",
"N. c #7E8E99",
"B. c #838383",
"V. c #8B8483",
"C. c #8C8986",
"Z. c #82858A",
"A. c #838A8B",
"S. c #8B8B8B",
"D. c #888888",
"F. c #918683",
"G. c #938B85",
"H. c #938C8B",
"J. c #9B8E8C",
"K. c #9B8D84",
"L. c #95918E",
"P. c #9C928E",
"I. c #9D9687",
"U. c #848C92",
"Y. c #8B8E92",
"T. c #858E99",
"R. c #8C9194",
"E. c #8C949B",
"W. c #8A959A",
"Q. c #949393",
"!. c #9C9492",
"~. c #939A9C",
"^. c #9B9B9C",
"/. c #979798",
"(. c #908E92",
"). c #A4938D",
"_. c #A49B95",
"`. c #A39D9A",
"'. c #A79995",
"]. c #AB9893",
"[. c #9FA09E",
"{. c #A3A29D",
"}. c #ABA39D",
"|. c #B8A49D",
" X c #949DA3",
".X c #9B9EA3",
"XX c #919DA8",
"oX c #8C97A2",
"OX c #A29FA3",
"+X c #9CA3AB",
"@X c #9AA3A8",
"#X c #9EACB4",
"$X c #A3A3A4",
"%X c #AAA4A2",
"&X c #ABA9A5",
"*X c #A3A5AA",
"=X c #ACABAB",
"-X c #A5A9AA",
";X c #B2ADAA",
":X c #B4A9A4",
">X c #B3B1AD",
",X c #BCB4AB",
"<X c #A4ACB3",
"1X c #ADAEB3",
"2X c #B3AEB2",
"3X c #ABB1B5",
"4X c #B4B4B3",
"5X c #BCBCBC",
"6X c #B9B7B7",
"7X c #AFB0AF",
"8X c #C7B5AC",
"9X c #C3BDB4",
"0X c #C2BDBA",
"qX c #C9B9B4",
"wX c #CAB3B0",
"eX c #D4B9AD",
"rX c #C4C2BD",
"tX c #C9C5BB",
"yX c #B6BBC3",
"uX c #AAB8C5",
"iX c #C0BDC0",
"pX c #B7C8D6",
"aX c #CAC5C2",
"sX c #CCCAC4",
"dX c #C8C8C8",
"fX c #D3CCC6",
"gX c #D9D3CB",
"hX c #C5CCD4",
"jX c #CCD3DA",
"kX c #D8D8D6",
"lX c #E2DCD5",
"zX c #E1D9C7",
"xX c #EBE2DC",
"cX c #D3DCE6",
"vX c #D9E6F1",
"bX c #F9F9F9",
"nX c #E6EBF0",
/* pixels */
"k > > % = : < g k = O , 5 l l h l < g < < , < , , , l z z v v j n n v z n n n n n n c l g h < 5 x < r g k = O & c c g ; : 3 3 g ",
"> : > & & : k k k = O 5 z N V V N N A Z A m n z r x g h g 5 5 3 2 2 , , , , 3 3 3 5 5 l l g 5 5 5 g < < < & o & c c h - < < k < ",
"& : k & = < k k g = o , v M n m m N N A N N N m M x x z x m M M b b v z l l l 5 k < < - - - = = : = = = % O X & c c g < h 3 k < ",
"> : > & : < k k k = o , r z b n N Z Z Z Z Z N N M M b z b z b b z v v z z z b z x x l l g g 5 5 g g g k = % X % c c j k j k k < ",
": > > & & > k k g ; O 4 l z z b b b z b b M M b b b b b b z z c c b z x x x l l z x l g 5 l g g < g g g k - o % j c j 5 k k k : ",
"> k > & > > k k h ; O 6 v B B M B B B B M M M M B M M b b l z b x z b z z z z z x z l g l g g 6 < g g g k : o % c c j k j k 3 3 ",
"k k k : > > k k h * O 4 b B M B M B V V V V B m M b M M M n z n M b b x b z z z z z z c l l j j x g j g g - X = c j h h h k > 3 ",
"j k > & > > j j k * O r b B B B M V V Z Y I Z V n l m Z T V V V A M M N c c z z z c z z j l j h x j j j k - X = c c j j h h 3 k ",
"j < : : k g g j h * % 6 B I I I I I U U U T U U U U R R R U Z Z Z Z Z V m m n n n n c c z z h h g h g h k - o = c j c h j h k k ",
"j < & < k k g g k * o - 2 6 5 2 3 3 2 2 2 6 3 3 g 3 6 g 2 3 3 6 g < 3 , , , - - * * * * % % % O % % % ; % o . = c j h j j h k k ",
"k > = k g g j g j * O 7 d t s D s s K u q t p w 0 X $ @ # @ @ @ # $ $ $ $ $ @ 8 @ f @ # @ @ f w u q w @ @ # . - n j h h h j h k ",
"k k = k g g g j k * @ d s ' ' ^ . o 0 q t D s ..9.O.0 + 8 u / ' y w [ s.2.Z.S.~.R.j.j.e.;.$.[ s ~ + y i i q @ - c j h g j j h k ",
"g < & k g g l j j =           4 t _ ] ;.M.XX#XpXuX@XXXoXT.u.i.^.OX5X6XiXhXsXdX6X:X,XtXtXtXgXrXW.Q.,.9.v.;.1.^ - n l j h j j h k ",
"g k % g g g g j h ; $ u / =.#X#X@XpXvXhX#XM.j.U.i.u.D.W.n.v.R.;X0XaX5XaXaXsXgX>X,XgXtXzXlXlXfX@X1XT.T.A.M.0.p - v l j j v j 5 6 ",
"< k = g g g h h h % i 9.oX#XvXpX XW.~.W.W.#XW.M.A.^.@XQ.B.y.~.*X6XrX;XaXsXlXrX&X,XtX,XtXlXkXxX7X X<X.X~.n.0.s - n c h h j v k 5 ",
"l g = g 5 k l h g % ^ w.uXuXjXpXW.j.j.M.M.M.j.;.u.R.[.S.B.9..X.X,XaX4XfX6X6X6XtXtX8XtXtXkXsXgXyX<XyX.X Xm.1.s - n j j h z j g k ",
"< g = 5 r g x x g % u -.u.M.uX-XB.p.e.A.j.n.u.w.-.-.0.n.D.y.+Xn.z.&XsXsX[.=X7X5XtXtXfXsXlXxXkXsX<X<X+X.Xm.1.p : n z j l z z g g ",
", g % g g g x j h % w { 6.m.*X-X@X*X1XE.W.M.R.R.W.j.6.A.v.j.Z.-.x.:X7X&X-X5X7XrXsXdXsXtXsXrXtXsX#XT.~..XY.p.p - n z z z z j z h ",
"l g = g g g j x j - p 0.j.m.$X3X6XhXyXM.q.M.~. X@X@X^.+Xn.e.1.2.C.&X=X-XtX3X&X>XsXsXtXgXtX9XsXrXT.;.E.Z.m.y.p - n z j z z j g h ",
"g l - l g g x j j % u { q.n.Q.+X3X#Xm.9.A. XW.j.W.n.~.<XA.B.u.l.C.I.{.5X5XjXsX;X9XkXsXgXsXsXrX4Xv.[ A./.i.-.w - z j j c z h l h ",
"l g : l g r x c c % d / 0.m.n.U.E.W.m.m.Y.R.6.=.v.n.~.E.R.~.u.C.[.L.^.[.R.$X>XgXtX>XrXtX9X=X=X-XM.{ n.@Xc...p : n z z z v h j z ",
"c 5 < x g x x c v * w { -.v.n.v.=.1.y. X@XA.q.u.A.S.A.Z.n.~.A.D.}.^.S.Q.L.{.rXrXsXtX9X6X4X>X&X-XN.^ y.S.e._ 8 - m z z z n z j j ",
"n 5 < z x c c v n - w o.1.m.Y.Z.v.q.Z.U.+X<X@X@X XE.D.u.A.D.A.D.L.}.Q.Q.{.>XrX9X,XrXtXtXdXrX&Xn.0.i _ ;.D.,.e : M z c z z z z z ",
"n < < c x x x v n ; q o.q.Q.(.c.c.n.c.u.u.#XE.m.A.A.j.i.j.j.u./.6.6.e.6.j.l.j.G.6.$._ $.-.X.D 9 0.1.$     $ $ - B z z n c x c h ",
"n 5 5 z c x z x c = q =.y.Y.Q.i.v.q.q.u.b.c.p.v.c.c.i.e.S.j.X.[.j.] _ s p C ` ,.X.,...( s s ) -.w.U.c.Q.Z.<.w - m v c v v v z j ",
"c 5 l b x x c z m - q ..9.Q.S.Z.A.n.v.S.*XU.S.U.n.B.B.1.u.e.o.[.>X@X4XaX-X7XdX1XL.^.D.l.[.$X&XpX~.U.~.<Xc.) 0 : B v n n c z n z ",
"c , l z x x b z N - d ..9.S.D.S.D.+XE.*X<XQ.Z.e.e.e.n.B.6.3.} -X>X~.6X;XL.&XrX7X&XR.C.z.z.S.[.&X~.oXXXD.g.@.0 - V v n n v z z z ",
"M < x z x b z c N : 0 ) 2.c.n.B.Z.Z.c.S.Z.^.^.Z.B.n.D.%XL.6.-.4X&X^.&X,X:X:XrX6X&XA.d.I.!.L.Q.-XD.C.S.Y.C.5.e : V n v n v v l z ",
"z , z z x z b M Z : w ) e.y.:.2.b.Z.c.u.c.Y.Y.b.n.A.D.!.C.:.1.7X{.H.%X,X>X8X_.j.z.R.l.L.;X&X&XR.Y.Q.m.(.V.h.C = V M n n n b z z ",
"b , z n z b z M V 3 w ..i.y.9.4.2.c.u.e.d.D.Y.c.Z.A.i.Z.B.3.1.A.^.OX}._.}.tXI.{.rXD.6.{.}.=X&XC.b.e.X.p.).).( : B M z n b z z z ",
"c , b b z b b N Z 3 f D =.Z.y.X.} ..[ _ ..c.U./..XD.B.Z.j.2.%.t.[.i.).}.P.;XrX}.I.y.,.K.&.2.C.!.D.i.D.j.).x.L - V b z n b b z n ",
"n < b x z b n N I 3 0 a K s s K ` C  .' C / / _ ( / ) ( K L ) V.^. .( } / K { D a 3.z.x.z.5.r.C.j.j./.C.r.&.C - V M z z b c z z ",
"z 4 M b z n M V I 3 ) S.;X!.!.^.H.OX6X*X*X%X(.!./.V.Q.F.}.gXnXcXhX7Xj.+.X.} } :.6.l.).}.8X}.g.D.B.j.D.j.c.&.e , V n z z v b z v ",
"n g M v z z z V Z 6 K K.,XtXgX0X4XjXbXhXqXqXwX'.H.(.2X2X6X2XwX:X`.F.P.z.7.L.^.[.l.t.{.7X8X,X`.C.C.S.D.n.d.,.q : V n z v z b x n ",
"j 5 N z z z n V U 3 a C.8X8XeX,XdXdXxXdX:X}.].OX!.J.].(.b.J.J.H.].F.P.`.B./.$X4Xl.t.H.'.|.&X{.l./.^.C.L.r.+.e - V M z M x b b M ",
"j h x b z b M T R 2 K V.}.8X,X;X%X6XaX2X|.).J.g.).].'././.'.H.!.).H.P.`.%X*X=X>XL.2.V.:X|.:XI.G.S.L.D.L.d.>.d , V M z b x b b M ",
"v h v v b b M Y R 3 ( C.].:X`.`.`.2XqXaX:X!.b.J.wX8Xb.p.c.C.H.(.'.J.P.`.=X4X6X=X{.3.r.P.).^.).!.L.L.H.!.b.4.s , B v v b v b b x ",
"h h h v b b M M R 3 K l.OX:X}.:X;X6X0XyX:Xb.b.2X}.b.d.d.D.).J.).!.].b.D.H.t.4.d.!.l.7.V.x.G.P.K.F.L.L.!.b.,.a , B v v v v b b x ",
"5 l z b b B v h U 3 a i./.2X;X/.(.2XdX2X|.).J.!.g.a.r.b.F.].).|.%X!.t.C.C.l.V.G.4.i.8.l.G.z.z.f.z.V.H.S.8.| e < Y b v b v b B b ",
"4 r b M b B v m U g s r.`.%X_.^.*X1XyX2X;X].b.g.4.r.d.g.b.).].f.4.s.>.z.G.H./.!. .3.d.!.z.z.z.z.V.D.G.H.r.%.e , L x x v v b M x ",
", b N N b M B V I 6 s 4.H.`.`..XOXyXiX2XOXJ.g.4.r.g.g.b.d.g.F.).OXS.d.g.t.r.d.B.%.j.7.^.V.d.H.L.d.D.(.S.i.-.u : V x l b b b B b ",
", z N V b n N Z Y 5 e >.H.`.!.!.J.=X=X2X.XH.H.J.f.e.a.p.r.p.b.p.,.a.p.b.V.d.y.s.s.L.d.l.l.d.7.,.,.e.c.c.e...p 2 B z l v b l B v ",
", m m Z M M V V T 3 p +.!.!.!.C.b.OX6X*Xg.f.g.g.h.4.r.y.p.,.s.>.,.e.e.r.t.g.d.:.-.D.l.i.D.4.r.C.S.1...4.s.} w 2 B z l v v z b M ",
", A N Z M B Z Z T < a p.Q./.V.4.8.b.!.g.b.4.` L ( K ( ( a K K ) ` ( ` 5.z.e.e.t.{.gXL.%.B.B.p.s.1.=.1.2.>.>.0 2 b z z b v x M M ",
"< Z A Z b N V Z T , @ e a }  .@.5.,.r.).| X.4.+.,.@.O.s s a s a | :.| | +.r.9XbXbXbXbXn.y.3...:.[ ~ i w f 8 # , M z l v v l M v ",
"g A N Z n N V V T : e +.r.d.b.=X4XQ.2.K.G.qXaX%XOX=X+X+X~.@XE.E.nXbXhX.X/..XbXbXnXbXbXcXR.m.^.A.m.m.w.s.$.-.u - b x l v z l M x ",
"< V N Z b B V V Y r C h.).].8XeXtX}.D.H.%X2X!.g.x.z.L.i.7.b.y.Y.vXfXH.g.5.5.dXjXcXbX3X~.U.@X6Xn.j.m.M.A.1.O.0 - v z x v v r b x ",
"x N M M b M M M Z < x h.J.].|.qX|.L.d.*XL.g.F.G.!.P.h.G.P.t.4.B.yX'.g.>.g.b.<XjXnXbXbX{.~.S.i.3.6.D.7XA.u.6.q : b z x z v l b l ",
"l N m M v M M B V 5 e | h.].].|.f.F.OXD.t.@.r.`.).P.H.G.P.{.d.i.1X$X).L.(.D.gXbXbXbXbXxXdX+X5XgX@X>X`.1.L.G.L 2 v v z z v l b l ",
"l N n z v M B B Y 5 p >.f.f.J.|.J.F.D.e.r.f.e.V._.H.z.|.Q.C.Z.t.$X%X{.L.D.D.qXcXbXbXxXsX3X<X-XaXD.l.n.:.g.t.D , n l l z z l b 6 ",
"h N B b z V B B Y 5 u 5.J.J.|.J.F.F.F.s.4.4.G.H.!.H.G.P.L.L.C.B.Q.%X=X!.V.i.$XhXcXbXbX9XY.m.6.e.y.j.q.C.q.X.q - n z h l v r b l ",
"g M M x v B B M Y 5 e | r.J.J.b.b.f.a.9.r.` +.V.C.C.!.^.C.B.j.e.Q.H.G.K.l.B.1XhX6XkX&XL.=X+XT.Y.A.-.0.gX1./ 7 2 n v h l j h v 6 ",
"h M b x M B n P Z g w s.b.).J.J.F.H.b.4.!.>.@.>.,.@.&...:.>.| C ) / | ' a a ) _ i _ :.` } { ~ ^ i ^ <XvX3.D q - n l h l j 6 z 4 ",
"5 n x l b b v I Z x w s.b.b.b.J.J.!.a.2.iXdXyX<X^.B.t.B.(.A.n.U.n.c.@XY.c.y.U..Xv...D.B.:.' { =.W.uXvXpX;.[ d - n l h l l 6 x 4 ",
"5 z v 5 v b b b Z x w ` h.b.(.J.J.b.<.| S..XoXc.Y.+X.X!.!.r.p.q.:.@.4.:.>.r.d.(.E.q.=XjXE.y.q.U.M.j.3XM.u [ f - v g 5 6 l r x - ",
"5 x z 5 x b b b Z x w | 8.f.b.'.).b.c.` c.c.c.r.p.F.d.r.,.+.>.:.3.@.:.>.@.%.4.b.Q.w.vXcX3X<Xm.A.A.A.q.y   @ . - h h 5 5 6 4 l ; ",
"6 6 6 4 l z b b Z x w | 8.z.F.!.!.C.p._ <.p.c.D.h.f.f.4.| 7.e.2.:.&.r.2.r.h.&.&.,.R.yXi.u.E.u.u.0.q.o.D o.0 $ 2 z 5 6 2 5 6 r ; ",
"- 6 z 4 6 z t b V r 0 [ @.r.d.d.F.H.2.[ b.c.c.(.Q.z.>.| p.y.+.+.X.>.,.d.f.5.>.>.4.U.^.( w w a s y D ..M.N.0.u - z 5 4 , 2 4 5 ; ",
", 5 6 2 6 l z z B 2 7 _ #.4.8.5.g.s./ ..a.a.v.p.D.d.+.| X.:.$. .} s.4.7.r.r.4.| X.c.S.7.V.S.3.%.3.1.W.N.q.O.w - h 5 2 - - 5 4 ; ",
"h 6 4 4 6 6 z b B 6 1 S E ( ( ' ' a / e.9.2.9.2.a.<.} >.X. .} } ` | &.5.>.g.@.|  .3.u.e.p.l.t.3.-.w.N.j.1.] 0 ; h 2 : # - 4 4 % ",
"h 5 - 2 4 6 l v n 4 1 S F d d w w e &.d.p.9.o.<.<.=.=.&.] ` ] #.| W *.+.@.@.' '  .<.e.:.t.t.t.6.-.<.y.6...D 7 - j 4 - X ; , , O ",
"4 2 - , 4 6 r l b 3 1 S *.j.j.A.v.c.1.,.+.e.y.-._ o... .#. .#.Q ` Q !  .E ] _  .3.2.n.2.7.t.6.&.s...$.j.] S 1 ; 6 4 ; # - , , O ",
"- , - - : 4 6 l z 2 1 S F Q ! *.k.k.W J W E E E J E E E H F H H J H H H H H J J J E W E J E ! #.W E E E S S 1 - 5 4 - ; - , , X ",
"; - ; - 2 7 6 6 l : 1 S G G G G G G G G G G G G G G G G G G G G G G G G G G G G G G G G G G G G G G G G G S 1 * 5 2 ; ; ; - - X "
};
